<svg xmlns="http://www.w3.org/2000/svg" viewBox="0 0 32 32">
  <defs>
    <clipPath id="rh">
      <rect x="16.5" y="0" width="16" height="32"/>
    </clipPath>
    <clipPath id="lh">
      <rect x="0" y="0" width="15.5" height="32"/>
    </clipPath>
  </defs>

  <!-- Left half: cobalt -->
  <path
    clip-path="url(#lh)"
    d="M16 28
       C 7 21, 2 16, 2 11
       C 2 6.8, 5.4 4, 9.5 4
       C 12.1 4, 14.3 5.4, 16 7.8
       C 17.7 5.4, 19.9 4, 22.5 4
       C 26.6 4, 30 6.8, 30 11
       C 30 16, 25 21, 16 28 Z"
    fill="#0212EE"
  />

  <!-- Right half: cherry -->
  <path
    clip-path="url(#rh)"
    d="M16 28
       C 7 21, 2 16, 2 11
       C 2 6.8, 5.4 4, 9.5 4
       C 12.1 4, 14.3 5.4, 16 7.8
       C 17.7 5.4, 19.9 4, 22.5 4
       C 26.6 4, 30 6.8, 30 11
       C 30 16, 25 21, 16 28 Z"
    fill="#D20001"
  />

  <!-- Divider: thin white seam down the center -->
  <line x1="16" y1="4" x2="16" y2="28" stroke="white" stroke-width="1" opacity="0.7"/>
</svg>
